Coordinates
version=1
nRows=4
nColumns=40
inDegrees=yes

Units are S.I. units (second, meters, Newtons, ...)
If the header above contains a line with 'inDegrees', this indicates whether rotational values are in degrees (yes) or radians (no).

endheader
time	pelvis_tilt	pelvis_list	pelvis_rotation	pelvis_tx	pelvis_ty	pelvis_tz	hip_flexion_r	hip_adduction_r	hip_rotation_r	knee_angle_r	knee_angle_r_beta	ankle_angle_r	subtalar_angle_r	mtp_angle_r	hip_flexion_l	hip_adduction_l	hip_rotation_l	knee_angle_l	knee_angle_l_beta	ankle_angle_l	subtalar_angle_l	mtp_angle_l	lumbar_extension	lumbar_bending	lumbar_rotation	arm_flex_r	arm_add_r	arm_rot_r	elbow_flex_r	pro_sup_r	wrist_flex_r	wrist_dev_r	arm_flex_l	arm_add_l	arm_rot_l	elbow_flex_l	pro_sup_l	wrist_flex_l	wrist_dev_l
      8.41999999999999992895	      9.52884409540399346383	     -3.85847586144188836599	    179.72527672056810388312	      0.35120612768795439473	      0.80231345011664079170	     -0.63121968979469667005	     53.57169298436279092357	     -5.07065560319690344926	      8.70261521268377080673	     53.88865094000629341053	      0.94053438836104708010	     18.93963443129237944618	      0.00000000000000000000	      0.00000000000000000000	     53.23969340796635663082	    -12.95479283800792202896	    -14.69277184001288460991	     57.56514596699670249791	      1.00470133151522755810	     10.15896327687898725856	      0.00000000000000000000	      0.00000000000000000000	    -62.81023171766944557248	     -3.77484541448073063208	     -2.89208289410378505124	     59.46807394577755445653	      0.29010213923733907393	     29.73715472187884856226	      2.68997113197911685845	      7.79240414978620332676	      0.00000000000000000000	      0.00000000000000000000	     67.65445892752038048457	     -8.74341771905116615926	     83.56244156618096496913	      4.57555458311740270716	     85.38911722495272726974	      0.00000000000000000000	      0.00000000000000000000
      8.42500000000000071054	      9.47382533889397926430	     -3.82861461783581980001	    179.73251315957884344243	      0.35124525442808335329	      0.80336595448179248802	     -0.63113167379978685201	     53.33911327162379478750	     -5.10556617863739159446	      8.60826912032712598943	     53.55081187443256141023	      0.93463798432492439794	     18.70066262683191027349	      0.00000000000000000000	      0.00000000000000000000	     53.02981096796265347848	    -12.85596278356687172106	    -14.54540619314838778564	     57.24520220083578436743	      0.99911725937448869761	      9.98205844964853916679	      0.00000000000000000000	      0.00000000000000000000	    -62.74583039741341394802	     -3.73100816148503167113	     -2.84101087740056845732	     59.38776351042602641428	      0.25825300993854499731	     29.64372927335555019113	      2.73183942732616813487	      7.81033707487329387220	      0.00000000000000000000	      0.00000000000000000000	     67.55231864897538685000	     -8.73501536433579417462	     83.57769352772032789289	      4.56886191225231286239	     85.38902469556786911653	      0.00000000000000000000	      0.00000000000000000000
      8.42999999999999971578	      9.50561860755948195845	     -3.84849857866650690852	    179.72853470225507521718	      0.35127994307631654758	      0.80430817832731238415	     -0.63112196164247769126	     53.23410798441351943211	     -5.14029391966671767022	      8.57948695545386641470	     53.29484075433015277667	      0.93017044548911953505	     18.58996202827287547166	      0.00000000000000000000	      0.00000000000000000000	     52.93785305841586108500	    -12.81626869417467773360	    -14.63721223438566454433	     57.03781980778822457978	      0.99549775380514382572	      9.90083530393560984351	      0.00000000000000000000	      0.00000000000000000000	    -62.57837372526419272845	     -3.74685768578768829684	     -2.80398989253919284081	     59.23080436668737291939	      0.23102788744880331517	     29.57603535845508346824	      2.71440737754752392519	      7.81253220643206969243	      0.00000000000000000000	      0.00000000000000000000	     67.46200001338344520718	     -8.69742415288869352707	     83.58313079222165242754	      4.59895687681511411427	     85.39405309347218064886	      0.00000000000000000000	      0.00000000000000000000
      8.43500000000000049738	      9.49611972032638185226	     -3.81724092266481696001	    179.73186219891871928667	      0.35133835491130682716	      0.80528760651142194948	     -0.63111491772171812720	     53.03486074919297976749	     -5.15246643151235250713	      8.50739606024087713365	     52.93956897319100107779	      0.92396978316881672733	     18.36676291982213271581	      0.00000000000000000000	      0.00000000000000000000	     52.76286818264006228674	    -12.74008985787675563017	    -14.53083307362910758798	     56.69262317832902908776	      0.98947293605429398333	      9.73039195006420598588	      0.00000000000000000000	      0.00000000000000000000	    -62.46117444118722517032	     -3.68479317544318618616	     -2.78541083098671826690	     59.15903510855196145712	      0.26314347617261746315	     29.46937925210295716738	      2.75720869621610509270	      7.83344508131760086656	      0.00000000000000000000	      0.00000000000000000000	     67.33601340409185809222	     -8.73296932696199590396	     83.57875426674986840681	      4.59702117116873409941	     85.40114945793423828491	      0.00000000000000000000	      0.00000000000000000000
